solid STL generated by MeshLab
  facet normal  5.773503e-01  5.773503e-01  5.773503e-01
    outer loop
      vertex   1.000000e+00  0.000000e+00  0.000000e+00
      vertex   0.000000e+00  1.000000e+00  0.000000e+00
      vertex   0.000000e+00  0.000000e+00  1.000000e+00
    endloop
  endfacet
  facet normal  5.773503e-01 -5.773503e-01  5.773503e-01
    outer loop
      vertex   1.000000e+00  0.000000e+00  0.000000e+00
      vertex   0.000000e+00  0.000000e+00  1.000000e+00
      vertex   0.000000e+00 -1.000000e+00  0.000000e+00
    endloop
  endfacet
  facet normal  5.773503e-01 -5.773503e-01 -5.773503e-01
    outer loop
      vertex   1.000000e+00  0.000000e+00  0.000000e+00
      vertex   0.000000e+00 -1.000000e+00  0.000000e+00
      vertex   0.000000e+00  0.000000e+00 -1.000000e+00
    endloop
  endfacet
  facet normal  5.773503e-01  5.773503e-01 -5.773503e-01
    outer loop
      vertex   1.000000e+00  0.000000e+00  0.000000e+00
      vertex   0.000000e+00  0.000000e+00 -1.000000e+00
      vertex   0.000000e+00  1.000000e+00  0.000000e+00
    endloop
  endfacet
  facet normal -5.773503e-01  5.773503e-01 -5.773503e-01
    outer loop
      vertex  -1.000000e+00  0.000000e+00  0.000000e+00
      vertex   0.000000e+00  1.000000e+00  0.000000e+00
      vertex   0.000000e+00  0.000000e+00 -1.000000e+00
    endloop
  endfacet
  facet normal -5.773503e-01 -5.773503e-01 -5.773503e-01
    outer loop
      vertex  -1.000000e+00  0.000000e+00  0.000000e+00
      vertex   0.000000e+00  0.000000e+00 -1.000000e+00
      vertex   0.000000e+00 -1.000000e+00  0.000000e+00
    endloop
  endfacet
  facet normal -5.773503e-01 -5.773503e-01  5.773503e-01
    outer loop
      vertex  -1.000000e+00  0.000000e+00  0.000000e+00
      vertex   0.000000e+00 -1.000000e+00  0.000000e+00
      vertex   0.000000e+00  0.000000e+00  1.000000e+00
    endloop
  endfacet
  facet normal -5.773503e-01  5.773503e-01  5.773503e-01
    outer loop
      vertex  -1.000000e+00  0.000000e+00  0.000000e+00
      vertex   0.000000e+00  0.000000e+00  1.000000e+00
      vertex   0.000000e+00  1.000000e+00  0.000000e+00
    endloop
  endfacet
endsolid vcg
